# xmcd
#
# Track frame offsets: 
#        150
#        12494
#        22306
#        35931
#        57265
#        71190
#        84010
#        99163
#        112488
#        126644
#
# Disc length: 1836 seconds
#
# Revision: 2
# Processed by: cddbd v1.5.2PL0 Copyright (c) Steve Scherf et al.
# Submitted via: ExactAudioCopyFreeDBPlugin 1.0
#
DISCID=95072a0a
DTITLE=Waylon Jennings - Lassoes And Spurs
DYEAR=1992
DGENRE=Country
TTITLE0=Clyde
TTITLE1=Theme From The Duke Of Hazzard
TTITLE2=Don't You Think This Outlaw Shit's Done Got Out Of Hand
TTITLE3=I Ain't Living Long Like This
TTITLE4=Come With Me
TTITLE5=Shine
TTITLE6=Women Do Know How To Carry On
TTITLE7=Are You Sure Hank Done It This Way
TTITLE8=Waltz Me To Heaven
TTITLE9=Let's Turn Back The Years
EXTD=
EXTT0=
EXTT1=
EXTT2=
EXTT3=
EXTT4=
EXTT5=
EXTT6=
EXTT7=
EXTT8=
EXTT9=
PLAYORDER=
